Simulation
nRows=16
nColumns=15
endheader
time  TH_x TH_y TH_z SC_y  SC_z  SC_x  AC_y  AC_z  AC_x  GH_y  GH_z  GH_yy  EL_x  PS_y
8.6175  0.000000  0.000000  0.000000  -44.451093303431556  -1.7801348598330713  -6.6811718415683705  53.789677649235834  -0.714363399429707  9.352820899215256  3.444778255840889  37.56220236850355  -8.417963220295261  26.563087826235616  120.000000
8.67495  0.000000  0.000000  0.000000  -44.66930519157204  -2.5501420977089104  -5.943497909601309  53.41166902261518  -0.6224434846350552  7.571449931646692  6.203090788092124  37.439801941994546  -11.793349517267941  26.44737939970205  120.000000
8.7324  0.000000  0.000000  0.000000  -44.609025425749145  -2.5774115131008126  -6.427855966870668  52.496371437611764  -0.06124241078535826  7.37904114616798  8.140478014560706  37.096095245420756  -13.93505525144151  26.72036343667403  120.000000
8.78985  0.000000  0.000000  0.000000  -44.53679507028418  -2.22557539184985  -7.0324421957538075  53.04466215106305  0.015723938303881812  8.087625854426939  6.968108531583312  37.549703549021096  -12.59292602517145  26.50741570531981  120.000000
8.8473  0.000000  0.000000  0.000000  -44.70109579511163  -2.210968551374189  -6.4833167173979795  53.26242307590929  -0.347505566761347  8.49297444419737  5.28748758708676  37.54582742309798  -10.482278691321017  26.541263831935282  120.000000
8.90475  0.000000  0.000000  0.000000  -44.65329933051553  -2.2742493139771067  -6.429571696352056  53.09911823907948  -0.3327265988287283  7.712791647067893  6.668793343695043  37.619987156781704  -12.511195169260235  26.549994159064912  120.000000
8.9622  0.000000  0.000000  0.000000  -44.61801997850203  -2.382477575166169  -6.218990717030574  52.8751118416204  -0.5263722362529394  7.9715003605663375  5.723175980581727  37.64904857199894  -11.310799215529505  26.680535798137498  120.000000
9.01965  0.000000  0.000000  0.000000  -44.48885378121875  -2.451946697509686  -6.328258968482655  52.98059057114646  -0.5211879248822955  7.44422468622625  6.339937001631884  37.96823829762964  -12.026777925891007  26.521324483085852  120.000000
9.0771  0.000000  0.000000  0.000000  -44.354341543148024  -2.543630724015925  -6.377879484361089  52.449942834599284  -0.5456527421506465  7.7020113274759465  5.972587898605614  37.967441304356996  -11.153976304616908  26.718861735913148  120.000000
9.13455  0.000000  0.000000  0.000000  -44.351586547606225  -2.7398210825434384  -6.6050751633561  52.955498203520534  -0.38846141942556617  7.382513601462727  6.08675440058485  38.4732804383774  -11.731761215133085  26.52882667531446  120.000000
9.192  0.000000  0.000000  0.000000  -44.29506671696714  -2.5670228146282428  -6.829775258189338  52.50849558262834  -0.14298573709667442  8.041411733404528  5.870317092051001  38.058406471232615  -11.330268315453285  26.744143004740806  120.000000
9.24945  0.000000  0.000000  0.000000  -44.48521444611118  -2.377613587446958  -7.22586590708521  53.272705127086034  0.0061632422385785295  8.247950153342437  5.688860933282698  38.41824177156454  -12.009352603535921  26.517037070363813  120.000000
9.3069  0.000000  0.000000  0.000000  -45.00425173352941  -2.2434107985887897  -6.222481690182246  53.5740125058019  -0.20673910073332769  8.760686998535235  4.21488102506884  37.58989990475724  -10.360319231724398  26.55267914714  120.000000
9.36435  0.000000  0.000000  0.000000  -44.80525746140999  -2.0548334736584386  -6.173511909718484  52.7177199847854  -0.5503211966254083  7.3513266202992735  7.569964277687015  37.554268106615915  -13.870501412787203  26.56622548426666  120.000000
9.421800000000001  0.000000  0.000000  0.000000  -44.49581041920572  -2.433478870112076  -6.036965079220568  51.811415510014285  -0.8169138150273311  7.151903297977395  7.529665019340663  37.75030370502436  -12.415608330411285  26.806740320455756  120.000000
9.47925  0.000000  0.000000  0.000000  -44.2682214402175  -3.185744619754104  -6.769216897158603  53.0168331237588  -0.0173294216492796  7.153900458371031  5.75009696476224  38.55791628906069  -10.037281466193098  26.202696531703975  120.000000
